<svg xmlns="http://www.w3.org/2000/svg" width="15.784" height="18.006" viewBox="0 0 15.784 18.006"><g transform="translate(-2.58 -1.246)"><path d="M10.468,19.683a7.892,7.892,0,0,1,0-15.784,8.754,8.754,0,0,1,2.6.385A.63.63,0,1,1,12.7,5.491a7.647,7.647,0,0,0-2.236-.335A6.623,6.623,0,1,0,15.986,8.1a.628.628,0,0,1,1.047-.695,7.889,7.889,0,0,1-6.565,12.275Z" transform="translate(0 -0.432)" fill="#fff"/><path d="M15.538,5.285a.638.638,0,0,1-.477-.218l-2.42-2.78a.629.629,0,0,1,.946-.829l2.42,2.78a.633.633,0,0,1-.059.888A.575.575,0,0,1,15.538,5.285Z" transform="translate(-1.612)" fill="#fff"/><path d="M12.638,7.885a.632.632,0,0,1-.377-1.139l2.822-2.06A.629.629,0,0,1,15.828,5.7L13.006,7.768A.586.586,0,0,1,12.638,7.885Z" transform="translate(-1.534 -0.54)" fill="#fff"/></g></svg>