<svg xmlns="http://www.w3.org/2000/svg" width="28" height="28" viewBox="0 0 28 28"><g transform="translate(13699 -7733)"><rect width="28" height="28" transform="translate(-13699 7733)" fill="none"/><g transform="translate(-13697 7735.661)"><path d="M12,22.81a2.265,2.265,0,0,1-1.8-.96l-1.5-2a.472.472,0,0,0-.2-.1H8c-4.17,0-6.75-1.13-6.75-6.75V8C1.25,3.58,3.58,1.25,8,1.25h8c4.42,0,6.75,2.33,6.75,6.75v5c0,4.42-2.33,6.75-6.75,6.75h-.5a.261.261,0,0,0-.2.1l-1.5,2A2.265,2.265,0,0,1,12,22.81ZM8,2.75C4.42,2.75,2.75,4.42,2.75,8v5c0,4.52,1.55,5.25,5.25,5.25h.5a1.876,1.876,0,0,1,1.4.7l1.5,2a.694.694,0,0,0,1.2,0l1.5-2a1.752,1.752,0,0,1,1.4-.7H16c3.58,0,5.25-1.67,5.25-5.25V8c0-3.58-1.67-5.25-5.25-5.25Z" fill="#fff"/><path d="M17,8.75H7a.75.75,0,0,1,0-1.5H17a.75.75,0,0,1,0,1.5Z" fill="#fff"/><path d="M13,13.75H7a.75.75,0,0,1,0-1.5h6a.75.75,0,0,1,0,1.5Z" fill="#fff"/></g></g></svg>