<svg xmlns="http://www.w3.org/2000/svg" width="24" height="24" viewBox="0 0 24 24"><g transform="translate(13698.736 -7733.264)"><rect width="24" height="24" transform="translate(-13698.736 7733.264)" fill="none"/><g transform="translate(-13698 7734.095)"><path d="M11.273,21.086a4.694,4.694,0,0,1-2.785-.876L4.522,17.25A5.167,5.167,0,0,1,2.65,13.524V6.663A3.881,3.881,0,0,1,5.03,3.233l4.6-1.724a5.333,5.333,0,0,1,3.264,0l4.6,1.724a3.881,3.881,0,0,1,2.379,3.43v6.852A5.151,5.151,0,0,1,18,17.24L14.039,20.2A4.546,4.546,0,0,1,11.273,21.086ZM10.12,2.809l-4.6,1.724A2.527,2.527,0,0,0,4.043,6.672v6.852a3.813,3.813,0,0,0,1.309,2.619L9.318,19.1a3.525,3.525,0,0,0,3.919,0l3.965-2.96a3.794,3.794,0,0,0,1.309-2.619V6.663a2.55,2.55,0,0,0-1.475-2.139L12.434,2.8A4.037,4.037,0,0,0,10.12,2.809Z" transform="translate(0)" fill="#fff"/><path d="M11.63,15.51a4.38,4.38,0,1,1,4.38-4.38A4.384,4.384,0,0,1,11.63,15.51Zm0-7.377a3,3,0,1,0,3,3A3,3,0,0,0,11.63,8.133Z" transform="translate(-0.358 -0.428)" fill="#fff"/><path d="M10.942,12.959a.688.688,0,0,1-.35-1.282l.7-.424a.227.227,0,0,0,.111-.194V10.2a.7.7,0,0,1,.692-.692.689.689,0,0,1,.692.682v.858A1.626,1.626,0,0,1,12,12.433l-.71.424A.6.6,0,0,1,10.942,12.959Z" transform="translate(-0.592 -0.643)" fill="#fff"/></g></g></svg>