<svg xmlns="http://www.w3.org/2000/svg" width="15.774" height="18" viewBox="0 0 15.774 18"><g transform="translate(-2.58 -1.252)"><path d="M10.467,19.681A7.889,7.889,0,0,1,3.911,7.407.628.628,0,1,1,4.958,8.1a6.634,6.634,0,1,0,5.509-2.947,7.641,7.641,0,0,0-2.236.327.63.63,0,0,1-.368-1.206,9.033,9.033,0,0,1,2.6-.385,7.9,7.9,0,0,1,0,15.791Z" transform="translate(0 -0.429)" fill="#fff"/><path d="M7.748,5.286a.637.637,0,0,1-.41-.151.627.627,0,0,1-.067-.888l2.42-2.78a.625.625,0,0,1,.888-.059.633.633,0,0,1,.059.888L8.217,5.068A.634.634,0,0,1,7.748,5.286Z" transform="translate(-0.738)" fill="#fff"/><path d="M10.569,7.885a.662.662,0,0,1-.368-.117L7.37,5.7a.629.629,0,0,1,.745-1.013l2.822,2.06a.627.627,0,0,1,.134.879A.594.594,0,0,1,10.569,7.885Z" transform="translate(-0.738 -0.54)" fill="#fff"/></g></svg>