<svg xmlns="http://www.w3.org/2000/svg" width="50" height="50" viewBox="0 0 50 50"><g transform="translate(-20 -730)"><rect width="50" height="50" rx="25" transform="translate(20 730)" fill="#fff" opacity="0.08"/><g transform="translate(33 743.497)"><path d="M16.418,6.422v1.16l-7.28,7.28a4.776,4.776,0,0,1-1.56-3.52V6.422a4.391,4.391,0,0,1,3.3-4.26.3.3,0,0,1,.37.3V4a.75.75,0,0,0,1.5,0V2.462a.3.3,0,0,1,.37-.3A4.391,4.391,0,0,1,16.418,6.422Z" fill="#fff"/><path d="M19.812,9.811V11.4a7.809,7.809,0,0,1-7.11,7.77V21.3a.7.7,0,1,1-1.4,0v-2.13a7.707,7.707,0,0,1-3.04-.93l1.03-1.03a6.42,6.42,0,0,0,9.13-5.81V9.811a.7.7,0,0,1,1.39,0Z" transform="translate(0 -1)" fill="#fff"/><path d="M16.418,10.078v1.45a4.428,4.428,0,0,1-4.86,4.4,3.733,3.733,0,0,1-.82-.17Z" transform="translate(0 -0.572)" fill="#fff"/><path d="M21.771,2.218a.8.8,0,0,0-1.09,0L7.231,14.995a5.842,5.842,0,0,1-1.65-4.066V9.419a.7.7,0,0,0-1.39,0v1.51a7.2,7.2,0,0,0,2.05,5.006l-4.02,3.819a.708.708,0,0,0,0,1.035.859.859,0,0,0,.55.209.778.778,0,0,0,.54-.218L21.771,3.244A.682.682,0,0,0,21.771,2.218Z" fill="#fff"/></g></g></svg>