<svg xmlns="http://www.w3.org/2000/svg" width="50" height="50" viewBox="0 0 50 50"><g transform="translate(-86 -730)"><rect width="50" height="50" rx="25" transform="translate(86 730)" fill="#fff" opacity="0.08"/><path d="M21.15,6.17a2.249,2.249,0,0,0-2.44.37L17.24,7.58c-.11-3.11-1.46-4.33-4.74-4.33h-6C3.08,3.25,1.75,4.58,1.75,8v8A4.415,4.415,0,0,0,6.5,20.75h6c3.28,0,4.63-1.22,4.74-4.33l1.47,1.04a2.752,2.752,0,0,0,1.59.58,1.819,1.819,0,0,0,.85-.21,2.257,2.257,0,0,0,1.1-2.21V8.38A2.257,2.257,0,0,0,21.15,6.17ZM11,11.38A1.88,1.88,0,1,1,12.88,9.5,1.884,1.884,0,0,1,11,11.38Z" transform="translate(99 743)" fill="#fff"/></g></svg>