<svg xmlns="http://www.w3.org/2000/svg" width="50" height="50" viewBox="0 0 50 50"><g transform="translate(-305 -730)"><rect width="50" height="50" rx="25" transform="translate(305 730)" fill="#fff" opacity="0.08"/><g transform="translate(14015 -6992)"><rect width="28" height="28" transform="translate(-13699 7733)" fill="none"/><g transform="translate(-13694.339 7735.333)"><path d="M17.323,4.622A2.626,2.626,0,0,1,14.7,7.244H10.622a2.622,2.622,0,1,1,0-5.244H14.7a2.626,2.626,0,0,1,2.622,2.622Z" transform="translate(-3.339 -2)" fill="#fff"/><path d="M21.283,5.108a3.3,3.3,0,0,0-.9-.524.588.588,0,0,0-.746.489,4.355,4.355,0,0,1-4.277,3.5H11.284A4.373,4.373,0,0,1,7.007,5.084.591.591,0,0,0,6.249,4.6C4.9,5.143,4,6.378,4,8.86V20.223c0,3.5,2.086,4.661,4.661,4.661h9.323c2.575,0,4.661-1.165,4.661-4.661V8.86C22.646,6.961,22.122,5.8,21.283,5.108ZM8.661,13.522h4.661a.874.874,0,0,1,0,1.748H8.661a.874.874,0,0,1,0-1.748Zm9.323,6.41H8.661a.874.874,0,0,1,0-1.748h9.323a.874.874,0,1,1,0,1.748Z" transform="translate(-4 -1.578)" fill="#fff"/></g></g></g></svg>