<svg xmlns="http://www.w3.org/2000/svg" xmlns:xlink="http://www.w3.org/1999/xlink" width="94" height="94" viewBox="0 0 94 94"><defs><linearGradient id="a" x1="0.5" x2="0.5" y2="1" gradientUnits="objectBoundingBox"><stop offset="0" stop-color="#f55"/><stop offset="1" stop-color="#ff4f4f"/></linearGradient><filter id="b" x="0" y="0" width="94" height="94" filterUnits="userSpaceOnUse"><feOffset dy="-5" input="SourceAlpha"/><feGaussianBlur stdDeviation="5" result="c"/><feFlood flood-opacity="0.02"/><feComposite operator="in" in2="c"/><feComposite in="SourceGraphic"/></filter></defs><g transform="translate(-141 -703)"><g transform="matrix(1, 0, 0, 1, 141, 703)" filter="url(#b)"><circle cx="32" cy="32" r="32" transform="translate(15 20)" fill="url(#a)"/></g><g transform="translate(208.706 757) rotate(135)"><path d="M0,0H29.284V29.284H0Z" fill="none"/><path d="M24.963,19.374v4.314a1.22,1.22,0,0,1-1.135,1.218c-.533.037-.969.056-1.306.056A19.522,19.522,0,0,1,3,5.44q0-.505.056-1.306A1.22,1.22,0,0,1,4.274,3H8.588a.61.61,0,0,1,.608.549c.028.281.054.5.078.674A16.961,16.961,0,0,0,10.748,9.1a.556.556,0,0,1-.179.692L7.936,11.678a15.919,15.919,0,0,0,8.351,8.351L18.165,17.4a.564.564,0,0,1,.7-.182,16.961,16.961,0,0,0,4.881,1.47c.17.024.393.051.671.078a.61.61,0,0,1,.548.608Z" transform="translate(0.66 0.66)" fill="#fff"/></g></g></svg>