<svg xmlns="http://www.w3.org/2000/svg" width="50" height="50" viewBox="0 0 50 50"><g transform="translate(-86 -730)"><rect width="50" height="50" rx="25" transform="translate(86 730)" fill="#fff" opacity="0.08"/><g transform="translate(98.997 742.999)"><path d="M17.74,7.57a.81.81,0,0,1,0,.22c0-.07-.01-.14-.01-.21Z" fill="#fff" opacity="0.4"/><path d="M17.279,6.56,3.829,20.01A4.6,4.6,0,0,1,1.879,16V8c0-3.42,1.33-4.75,4.75-4.75h6C15.519,3.25,16.909,4.2,17.279,6.56Z" fill="#fff"/><path d="M21.4,2.229a.773.773,0,0,0-1.09,0L1.85,20.689a.773.773,0,0,0,0,1.09.81.81,0,0,0,.54.22.758.758,0,0,0,.54-.23L21.4,3.309A.76.76,0,0,0,21.4,2.229Z" fill="#fff"/><path d="M22.38,8.38v7.24a2.274,2.274,0,0,1-1.1,2.21,1.864,1.864,0,0,1-.86.21,2.726,2.726,0,0,1-1.58-.58l-1.48-1.04c-.07,2.21-.77,3.47-2.36,4a7.116,7.116,0,0,1-2.38.33h-6a5.634,5.634,0,0,1-.71-.04L15,11.63l5.65-5.65a1.512,1.512,0,0,1,.63.19A2.274,2.274,0,0,1,22.38,8.38Z" fill="#fff"/></g></g></svg>