<svg xmlns="http://www.w3.org/2000/svg" width="50" height="50" viewBox="0 0 50 50"><g transform="translate(-20 -730)"><rect width="50" height="50" rx="25" transform="translate(20 730)" fill="#fff" opacity="0.08"/><g transform="translate(33 743)"><path d="M19.12,9.119a.7.7,0,0,0-.7.7V11.4a6.42,6.42,0,0,1-12.84,0V9.809a.7.7,0,0,0-1.4,0v1.58a7.826,7.826,0,0,0,7.12,7.78V21.3a.7.7,0,0,0,1.4,0v-2.13a7.827,7.827,0,0,0,7.12-7.78V9.809A.707.707,0,0,0,19.12,9.119Z" fill="#fff"/><path d="M12,2a4.421,4.421,0,0,0-4.42,4.42v5.12a4.42,4.42,0,1,0,8.84,0V6.42A4.421,4.421,0,0,0,12,2Zm1.31,6.95a.576.576,0,0,1-.56.43.772.772,0,0,1-.15-.02,2.187,2.187,0,0,0-1.19,0,.58.58,0,0,1-.3-1.12,3.435,3.435,0,0,1,1.8,0A.582.582,0,0,1,13.308,8.95Zm.53-1.94a.58.58,0,0,1-.55.38.693.693,0,0,1-.2-.03,3.144,3.144,0,0,0-2.18,0,.59.59,0,0,1-.75-.35.575.575,0,0,1,.35-.74,4.36,4.36,0,0,1,2.98,0A.579.579,0,0,1,13.838,7.01Z" fill="#fff"/></g></g></svg>