<svg xmlns="http://www.w3.org/2000/svg" width="50" height="50" viewBox="0 0 50 50"><g transform="translate(-239 -730)"><rect width="50" height="50" rx="25" transform="translate(239 730)" fill="#fff" opacity="0.08"/><g transform="translate(13949 -6992)"><rect width="28" height="27.998" transform="translate(-13699 7733)" fill="none"/><path d="M20,2H8A5.99,5.99,0,0,0,2,7.976v8.377a5.99,5.99,0,0,0,6,5.976H9.8a1.379,1.379,0,0,1,.96.48l1.8,2.388a1.705,1.705,0,0,0,2.88,0l1.8-2.388a1.216,1.216,0,0,1,.96-.48H20a5.99,5.99,0,0,0,6-5.976V7.976A5.99,5.99,0,0,0,20,2ZM15.2,16.1H8a.9.9,0,0,1,0-1.8h7.2a.9.9,0,0,1,0,1.8Zm4.8-6H8A.9.9,0,0,1,8,8.3H20a.9.9,0,0,1,0,1.8Z" transform="translate(-13699 7733)" fill="#fff"/></g></g></svg>