<svg xmlns="http://www.w3.org/2000/svg" xmlns:xlink="http://www.w3.org/1999/xlink" width="405" height="127" viewBox="0 0 405 127"><defs><filter id="a" x="0" y="0" width="405" height="127" filterUnits="userSpaceOnUse"><feOffset dy="-5" input="SourceAlpha"/><feGaussianBlur stdDeviation="5" result="b"/><feFlood flood-opacity="0.02"/><feComposite operator="in" in2="b"/><feComposite in="SourceGraphic"/></filter></defs><g transform="matrix(1, 0, 0, 1, 0, 0)" filter="url(#a)"><path d="M5251-6348H4900a11.92,11.92,0,0,1-8.485-3.514A11.921,11.921,0,0,1,4888-6360v-73a11.92,11.92,0,0,1,3.515-8.485A11.919,11.919,0,0,1,4900-6445h116a17,17,0,0,1,8.624,2.371,17.1,17.1,0,0,1,6.218,6.339A45.064,45.064,0,0,0,5075-6400a45.065,45.065,0,0,0,44.156-36.289,17.109,17.109,0,0,1,6.218-6.341A16.983,16.983,0,0,1,5134-6445a17.115,17.115,0,0,1,3,.264V-6445h114a11.921,11.921,0,0,1,8.486,3.516A11.919,11.919,0,0,1,5263-6433v73a11.919,11.919,0,0,1-3.515,8.485A11.924,11.924,0,0,1,5251-6348Z" transform="translate(-4873 6465)" fill="#fff"/></g></svg>